<?xml version="1.0" encoding="UTF-8"?>
<svg width="147px" height="48px" viewBox="0 0 147 48" version="1.1" xmlns="http://www.w3.org/2000/svg" xmlns:xlink="http://www.w3.org/1999/xlink">
    <!-- Generator: Sketch 54.1 (76490) - https://sketchapp.com -->
    <title>bold_bi_Syncfusion</title>
    <desc>Created with Sketch.</desc>
    <g id="ðŸ…App-Design" stroke="none" stroke-width="1" fill="none" fill-rule="evenodd">
        <g id="bold_bi_Syncfusion" fill-rule="nonzero">
            <g id="BoldBI-by-Syncfusion-2">
                <g id="BoldBI-by-Syncfusion">
                    <g id="Group">
                        <g id="Path" fill="#FF4800">
                            <path d="M9.30116399,0.413023256 L18.2840762,0.413023256 C20.7633601,0.413023256 22.7755324,2.3874759 22.7755324,4.82028361 L22.7755324,9.22754396 C22.7755324,11.6603517 20.7633601,13.6348043 18.2840762,13.6348043 L0.318251749,13.6348043 L0.318251749,9.22754396 C0.318251749,4.35689166 4.33746334,0.413023256 9.30116399,0.413023256 Z"></path>
                            <path d="M9.30116399,0.413023256 L18.2840762,0.413023256 C20.7633601,0.413023256 22.7755324,2.3874759 22.7755324,4.82028361 L22.7755324,9.22754396 C22.7755324,11.6603517 20.7633601,13.6348043 18.2840762,13.6348043 L0.318251749,13.6348043 L0.318251749,9.22754396 C0.318251749,4.35689166 4.33746334,0.413023256 9.30116399,0.413023256 Z"></path>
                            <path d="M0.318251749,18.0420646 L18.2840762,18.0420646 C20.7633601,18.0420646 22.7755324,20.0165173 22.7755324,22.449325 L22.7755324,31.2638457 C22.7755324,33.6966534 20.7633601,35.6711061 18.2840762,35.6711061 L9.30116399,35.6711061 C4.34259644,35.6711061 0.318251749,31.7222008 0.318251749,26.8565854 L0.318251749,18.0420646 Z"></path>
                            <path d="M31.7584447,18.0420646 L36.2499008,18.0420646 L36.2499008,26.8565854 C36.2499008,31.7222008 32.225556,35.6711061 27.2669885,35.6711061 L27.2669885,35.6711061 L27.2669885,22.449325 C27.2669885,20.0114804 29.2740277,18.0420646 31.7584447,18.0420646 Z"></path>
                            <path d="M27.2669885,0.413023256 L27.2669885,0.413023256 C32.225556,0.413023256 36.2499008,4.36192853 36.2499008,9.22754396 L36.2499008,13.6348043 L31.7584447,13.6348043 C29.2791608,13.6348043 27.2669885,11.6603517 27.2669885,9.22754396 L27.2669885,0.413023256 L27.2669885,0.413023256 Z"></path>
                        </g>
                        <g transform="translate(51.844236, 7.051617)" fill="#283A5E">
                            <path d="M0.174525152,21.028928 L0.174525152,0.231695973 L8.3823404,0.231695973 C12.3348218,0.231695973 14.7884401,2.48821328 14.7884401,5.86291549 C14.7884401,7.86758934 13.731023,9.41390811 12.1705628,10.0687011 C14.2751309,10.6328304 15.8663895,12.4461032 15.8663895,14.954464 C15.8663895,18.490346 13.233113,21.028928 9.35762802,21.028928 L0.174525152,21.028928 Z M8.00249154,4.18563812 L5.03556395,4.18563812 L5.03556395,8.49216109 L8.00249154,8.49216109 C9.24469998,8.49216109 10.1224588,7.72152014 10.1224588,6.33638117 C10.1224588,4.95627907 9.23956688,4.18563812 8.00249154,4.18563812 Z M8.62359576,12.2949971 L5.03556395,12.2949971 L5.03556395,17.0800226 L8.62359576,17.0800226 C9.95819986,17.0800226 10.8924227,16.1280544 10.8924227,14.6875099 C10.8924227,13.2318548 9.95306677,12.2949971 8.62359576,12.2949971 Z" id="Shape"></path>
                            <path d="M26.7023483,5.28367555 C31.7122468,5.28367555 35.48507,8.81955757 35.48507,13.337629 C35.48507,17.8557005 31.7173799,21.3915825 26.7023483,21.3915825 C21.6873167,21.3915825 17.9196267,17.8557005 17.9196267,13.337629 C17.9196267,8.81955757 21.6924498,5.28367555 26.7023483,5.28367555 Z M26.7023483,17.1958706 C28.9557761,17.1958706 30.6548297,15.5337039 30.6548297,13.3325922 C30.6548297,11.146591 28.9609091,9.46931367 26.7023483,9.46931367 C24.4437875,9.46931367 22.7498669,11.146591 22.7498669,13.3325922 C22.7498669,15.5337039 24.4489206,17.1958706 26.7023483,17.1958706 Z" id="Shape"></path>
                            <polygon id="Path" points="38.3185371 0.231695973 43.1795759 0.231695973 43.1795759 21.028928 38.3185371 21.028928"></polygon>
                            <path d="M53.4149628,5.28367555 C55.4733329,5.28367555 57.1723866,6.05431651 58.3940627,7.33368123 L58.3940627,0.231695973 L63.1781051,0.231695973 L63.1781051,21.028928 L58.3940627,21.028928 L58.3940627,19.33654 C57.1672535,20.6159047 55.4733329,21.3865456 53.4149628,21.3865456 C49.0980318,21.3865456 46.0438416,17.8506637 46.0438416,13.3325922 C46.0438416,8.81452071 49.0980318,5.28367555 53.4149628,5.28367555 Z M54.6109734,17.1958706 C56.7309407,17.1958706 58.3940627,15.5337039 58.3940627,13.3325922 C58.3940627,11.146591 56.7309407,9.46931367 54.6109734,9.46931367 C52.5064053,9.46931367 50.8740819,11.146591 50.8740819,13.3325922 C50.8689488,15.5337039 52.5064053,17.1958706 54.6109734,17.1958706 Z" id="Shape"></path>
                            <path d="M70.5081615,21.028928 L70.5081615,0.231695973 L78.7159768,0.231695973 C82.6684581,0.231695973 85.1220765,2.48821328 85.1220765,5.86291549 C85.1220765,7.86758934 84.0646593,9.41390811 82.5041992,10.0687011 C84.6087672,10.6328304 86.200026,12.4461032 86.200026,14.954464 C86.200026,18.490346 83.5667494,21.028928 79.6912643,21.028928 L70.5081615,21.028928 Z M78.3361279,4.18563812 L75.3692003,4.18563812 L75.3692003,8.49216109 L78.3361279,8.49216109 C79.5783364,8.49216109 80.4560951,7.72152014 80.4560951,6.33638117 C80.4560951,4.95627907 79.5783364,4.18563812 78.3361279,4.18563812 Z M78.9572321,12.2949971 L75.3692003,12.2949971 L75.3692003,17.0800226 L78.9572321,17.0800226 C80.2918363,17.0800226 81.2260591,16.1280544 81.2260591,14.6875099 C81.2260591,13.2318548 80.2918363,12.2949971 78.9572321,12.2949971 Z" id="Shape"></path>
                            <polygon id="Path" points="94.6439634 0.231695973 94.6439634 21.028928 89.634065 21.028928 89.634065 0.231695973"></polygon>
                        </g>
                    </g>
                </g>
            </g>
            <g id="By-Syncfusion" transform="translate(51.322581, 35.121951)">
                <g id="BySyncfusion">
                    <g id="path-1-link" fill="#000000">
                        <path d="M4.2967749,9.36585366 L1.00258081,9.36585366 L1.00258081,1.17073036 L3.93871032,1.17073036 C5.4366138,1.17073036 6.31983975,2.02536465 6.31983975,3.34243804 C6.31983975,4.2146333 5.84242031,4.78243828 5.19193633,5.01658465 C6.05725906,5.20390176 6.79725917,5.92975554 6.79725917,7.03024352 C6.79725917,8.41170716 5.82451708,9.36585366 4.2967749,9.36585366 Z M5.18000085,3.39512097 C5.18000085,2.58731596 4.63693625,2.12487687 3.86112966,2.12487687 L2.12451648,2.12487687 L2.12451648,4.65951142 L3.86112966,4.65951142 C4.63693625,4.65951142 5.18000085,4.20292599 5.18000085,3.39512097 Z M5.65742029,6.99512156 C5.65742029,6.12877996 5.06064598,5.57853596 4.20129101,5.57853596 L2.12451648,5.57853596 L2.12451648,8.41170716 L4.20129101,8.41170716 C5.06064598,8.41170716 5.65742029,7.85560951 5.65742029,6.99512156 Z M8.73080669,12.0819517 L9.82887139,9.34243902 L7.41193551,3.30146242 L8.54580667,3.30146242 L10.3838715,7.99024368 L12.2219363,3.30146242 L13.3558074,3.30146242 L9.86467785,12.0819517 L8.73080669,12.0819517 Z M17.8017743,8.07219491 L18.3925809,7.43999968 C18.9356455,8.04292661 19.7233876,8.53463401 20.5767748,8.53463401 C21.6629039,8.53463401 22.426775,8.001951 22.426775,7.18243866 C22.426775,6.45073123 21.9075815,5.88877991 20.4395167,5.59024328 C18.7208067,5.23902371 17.855484,4.41365773 17.855484,3.24877948 C17.855484,1.93755976 18.9416133,1.03024253 20.5051619,1.03024253 C21.9254847,1.03024253 23.3756462,1.75609631 23.3756462,3.35999902 L22.2358073,3.35999902 C22.2358073,2.47609644 21.5017749,2.00195001 20.5588716,2.00195001 C19.6398392,2.00195001 18.9953229,2.4819501 18.9953229,3.17268191 C18.9953229,3.91609667 19.6159682,4.39609674 20.9109683,4.68292606 C22.8146784,5.10438954 23.566614,5.93560919 23.566614,7.176585 C23.566614,8.53463401 22.4446783,9.50634146 20.6304845,9.50634146 C19.4667746,9.50634146 18.4761293,8.90341456 17.8017743,8.07219491 Z M25.4404841,12.0819517 L26.5385489,9.34243902 L24.1216129,3.30146242 L25.2554841,3.30146242 L27.0935489,7.99024368 L28.9316137,3.30146242 L30.0654848,3.30146242 L26.5743553,12.0819517 L25.4404841,12.0819517 Z M32.1840326,5.98829213 L32.1840326,9.36585366 L31.0979033,9.36585366 L31.0979033,3.30146242 L32.1840326,3.30146242 L32.1840326,4.23219428 C32.5838713,3.6234137 33.3179037,3.16097459 34.1891941,3.16097459 C35.7109687,3.16097459 36.677743,4.11512108 36.677743,5.63707256 L36.677743,9.36585366 L35.5916137,9.36585366 L35.5916137,5.69560916 C35.5916137,4.72975534 34.9948395,4.11512108 33.9862909,4.11512108 C33.0433876,4.11512108 32.1840326,4.92877976 32.1840326,5.98829213 Z M37.8712904,6.33365804 C37.8712904,4.51316994 39.2617746,3.16097459 41.0401619,3.16097459 C42.5261299,3.16097459 43.6958075,3.96292594 44.0240333,5.32097494 L42.8722589,5.32097494 C42.639517,4.55999922 41.9591943,4.11512108 41.1177425,4.11512108 C40.0674198,4.11512108 38.9753228,4.93463342 38.9753228,6.33365804 C38.9753228,7.73853632 40.1211295,8.55219499 41.2430651,8.55219499 C42.0248394,8.55219499 42.7588718,8.16585346 43.2124203,7.46926798 L43.9464527,7.8848778 C43.3616139,8.95024383 42.3769363,9.50634146 41.1595167,9.50634146 C39.4467746,9.50634146 37.8712904,8.1599998 37.8712904,6.33365804 Z M48.5893556,0.86634007 L48.5893556,1.78536461 C48.440162,1.76780364 48.2193554,1.75609631 48.0462909,1.75609631 C47.163065,1.75609631 46.8288713,2.15999882 46.8288713,2.94438919 L46.8288713,3.30146242 L48.5893556,3.30146242 L48.5893556,4.23804794 L46.8288713,4.23804794 L46.8288713,9.36585366 L45.7427422,9.36585366 L45.7427422,4.23804794 L44.4954839,4.23804794 L44.4954839,3.30146242 L45.7427422,3.30146242 L45.7427422,2.93268187 C45.7427422,1.50438896 46.4469358,0.81951079 47.9567748,0.81951079 C48.183549,0.81951079 48.4282265,0.842925436 48.5893556,0.86634007 Z M54.1035492,6.67317029 L54.1035492,3.29560876 L55.1896785,3.29560876 L55.1896785,9.36 L54.1035492,9.36 L54.1035492,8.42926814 C53.7037105,9.03804872 52.9696781,9.5004878 52.0983876,9.5004878 C50.5766131,9.5004878 49.6098388,8.54634133 49.6098388,7.02438986 L49.6098388,3.29560876 L50.6959681,3.29560876 L50.6959681,6.96585326 C50.6959681,7.93170708 51.2927423,8.54634133 52.3012909,8.54634133 C53.2441943,8.54634133 54.1035492,7.73268266 54.1035492,6.67317029 Z M56.5980646,8.38243886 L57.1112904,7.77951194 C57.5111293,8.25365835 58.1258068,8.58731694 58.8300005,8.58731694 C59.6117748,8.58731694 60.095162,8.23024372 60.095162,7.69170705 C60.095162,7.18243866 59.6893554,6.84878008 58.7225811,6.66731663 C57.3619357,6.40975562 56.7114517,5.78341405 56.7114517,4.84097487 C56.7114517,3.88682837 57.4872583,3.16097459 58.7822585,3.16097459 C59.975807,3.16097459 60.8172589,3.75804786 60.9664524,4.9229261 L59.8743554,4.9229261 C59.8504845,4.43707236 59.4804845,4.07999913 58.8598392,4.07999913 C58.2212907,4.07999913 57.7975809,4.40195041 57.7975809,4.85853585 C57.7975809,5.29170665 58.2153229,5.64877988 59.0746779,5.818536 C60.4950007,6.093658 61.1812912,6.70243859 61.1812912,7.70926802 C61.1812912,8.73365843 60.3398394,9.50634146 58.9016134,9.50634146 C57.8870971,9.50634146 57.1470969,9.07317068 56.5980646,8.38243886 Z M62.6374195,9.36585366 L62.6374195,3.30146242 L63.7235487,3.30146242 L63.7235487,9.36585366 L62.6374195,9.36585366 Z M62.464355,1.60975482 C62.464355,1.21170598 62.7746777,0.907315692 63.1804841,0.907315692 C63.5862907,0.907315692 63.8966133,1.21170598 63.8966133,1.60975482 C63.8966133,2.00195001 63.5862907,2.3063403 63.1804841,2.3063403 C62.7746777,2.3063403 62.464355,2.00195001 62.464355,1.60975482 Z M68.5216135,8.55219499 C69.786775,8.55219499 70.7595171,7.55707288 70.7595171,6.33365804 C70.7595171,5.1102432 69.786775,4.11512108 68.5216135,4.11512108 C67.256452,4.11512108 66.2837099,5.1102432 66.2837099,6.33365804 C66.2837099,7.55707288 67.256452,8.55219499 68.5216135,8.55219499 Z M68.5216135,3.16097459 C70.4491945,3.16097459 71.8635496,4.58341385 71.8635496,6.33365804 C71.8635496,8.08390223 70.4491945,9.50634146 68.5216135,9.50634146 C66.5940326,9.50634146 65.1796775,8.08390223 65.1796775,6.33365804 C65.1796775,4.58341385 66.5940326,3.16097459 68.5216135,3.16097459 Z M74.262581,5.98829213 L74.262581,9.36585366 L73.1764517,9.36585366 L73.1764517,3.30146242 L74.262581,3.30146242 L74.262581,4.23219428 C74.6624197,3.6234137 75.3964521,3.16097459 76.2677425,3.16097459 C77.7895171,3.16097459 78.7562914,4.11512108 78.7562914,5.63707256 L78.7562914,9.36585366 L77.6701621,9.36585366 L77.6701621,5.69560916 C77.6701621,4.72975534 77.0733879,4.11512108 76.0648393,4.11512108 C75.121936,4.11512108 74.262581,4.92877976 74.262581,5.98829213 Z" id="path-1"></path>
                    </g>
                    <g id="path-1-link" fill="#283A5E">
                        <path d="M4.2967749,9.36585366 L1.00258081,9.36585366 L1.00258081,1.17073036 L3.93871032,1.17073036 C5.4366138,1.17073036 6.31983975,2.02536465 6.31983975,3.34243804 C6.31983975,4.2146333 5.84242031,4.78243828 5.19193633,5.01658465 C6.05725906,5.20390176 6.79725917,5.92975554 6.79725917,7.03024352 C6.79725917,8.41170716 5.82451708,9.36585366 4.2967749,9.36585366 Z M5.18000085,3.39512097 C5.18000085,2.58731596 4.63693625,2.12487687 3.86112966,2.12487687 L2.12451648,2.12487687 L2.12451648,4.65951142 L3.86112966,4.65951142 C4.63693625,4.65951142 5.18000085,4.20292599 5.18000085,3.39512097 Z M5.65742029,6.99512156 C5.65742029,6.12877996 5.06064598,5.57853596 4.20129101,5.57853596 L2.12451648,5.57853596 L2.12451648,8.41170716 L4.20129101,8.41170716 C5.06064598,8.41170716 5.65742029,7.85560951 5.65742029,6.99512156 Z M8.73080669,12.0819517 L9.82887139,9.34243902 L7.41193551,3.30146242 L8.54580667,3.30146242 L10.3838715,7.99024368 L12.2219363,3.30146242 L13.3558074,3.30146242 L9.86467785,12.0819517 L8.73080669,12.0819517 Z M17.8017743,8.07219491 L18.3925809,7.43999968 C18.9356455,8.04292661 19.7233876,8.53463401 20.5767748,8.53463401 C21.6629039,8.53463401 22.426775,8.001951 22.426775,7.18243866 C22.426775,6.45073123 21.9075815,5.88877991 20.4395167,5.59024328 C18.7208067,5.23902371 17.855484,4.41365773 17.855484,3.24877948 C17.855484,1.93755976 18.9416133,1.03024253 20.5051619,1.03024253 C21.9254847,1.03024253 23.3756462,1.75609631 23.3756462,3.35999902 L22.2358073,3.35999902 C22.2358073,2.47609644 21.5017749,2.00195001 20.5588716,2.00195001 C19.6398392,2.00195001 18.9953229,2.4819501 18.9953229,3.17268191 C18.9953229,3.91609667 19.6159682,4.39609674 20.9109683,4.68292606 C22.8146784,5.10438954 23.566614,5.93560919 23.566614,7.176585 C23.566614,8.53463401 22.4446783,9.50634146 20.6304845,9.50634146 C19.4667746,9.50634146 18.4761293,8.90341456 17.8017743,8.07219491 Z M25.4404841,12.0819517 L26.5385489,9.34243902 L24.1216129,3.30146242 L25.2554841,3.30146242 L27.0935489,7.99024368 L28.9316137,3.30146242 L30.0654848,3.30146242 L26.5743553,12.0819517 L25.4404841,12.0819517 Z M32.1840326,5.98829213 L32.1840326,9.36585366 L31.0979033,9.36585366 L31.0979033,3.30146242 L32.1840326,3.30146242 L32.1840326,4.23219428 C32.5838713,3.6234137 33.3179037,3.16097459 34.1891941,3.16097459 C35.7109687,3.16097459 36.677743,4.11512108 36.677743,5.63707256 L36.677743,9.36585366 L35.5916137,9.36585366 L35.5916137,5.69560916 C35.5916137,4.72975534 34.9948395,4.11512108 33.9862909,4.11512108 C33.0433876,4.11512108 32.1840326,4.92877976 32.1840326,5.98829213 Z M37.8712904,6.33365804 C37.8712904,4.51316994 39.2617746,3.16097459 41.0401619,3.16097459 C42.5261299,3.16097459 43.6958075,3.96292594 44.0240333,5.32097494 L42.8722589,5.32097494 C42.639517,4.55999922 41.9591943,4.11512108 41.1177425,4.11512108 C40.0674198,4.11512108 38.9753228,4.93463342 38.9753228,6.33365804 C38.9753228,7.73853632 40.1211295,8.55219499 41.2430651,8.55219499 C42.0248394,8.55219499 42.7588718,8.16585346 43.2124203,7.46926798 L43.9464527,7.8848778 C43.3616139,8.95024383 42.3769363,9.50634146 41.1595167,9.50634146 C39.4467746,9.50634146 37.8712904,8.1599998 37.8712904,6.33365804 Z M48.5893556,0.86634007 L48.5893556,1.78536461 C48.440162,1.76780364 48.2193554,1.75609631 48.0462909,1.75609631 C47.163065,1.75609631 46.8288713,2.15999882 46.8288713,2.94438919 L46.8288713,3.30146242 L48.5893556,3.30146242 L48.5893556,4.23804794 L46.8288713,4.23804794 L46.8288713,9.36585366 L45.7427422,9.36585366 L45.7427422,4.23804794 L44.4954839,4.23804794 L44.4954839,3.30146242 L45.7427422,3.30146242 L45.7427422,2.93268187 C45.7427422,1.50438896 46.4469358,0.81951079 47.9567748,0.81951079 C48.183549,0.81951079 48.4282265,0.842925436 48.5893556,0.86634007 Z M54.1035492,6.67317029 L54.1035492,3.29560876 L55.1896785,3.29560876 L55.1896785,9.36 L54.1035492,9.36 L54.1035492,8.42926814 C53.7037105,9.03804872 52.9696781,9.5004878 52.0983876,9.5004878 C50.5766131,9.5004878 49.6098388,8.54634133 49.6098388,7.02438986 L49.6098388,3.29560876 L50.6959681,3.29560876 L50.6959681,6.96585326 C50.6959681,7.93170708 51.2927423,8.54634133 52.3012909,8.54634133 C53.2441943,8.54634133 54.1035492,7.73268266 54.1035492,6.67317029 Z M56.5980646,8.38243886 L57.1112904,7.77951194 C57.5111293,8.25365835 58.1258068,8.58731694 58.8300005,8.58731694 C59.6117748,8.58731694 60.095162,8.23024372 60.095162,7.69170705 C60.095162,7.18243866 59.6893554,6.84878008 58.7225811,6.66731663 C57.3619357,6.40975562 56.7114517,5.78341405 56.7114517,4.84097487 C56.7114517,3.88682837 57.4872583,3.16097459 58.7822585,3.16097459 C59.975807,3.16097459 60.8172589,3.75804786 60.9664524,4.9229261 L59.8743554,4.9229261 C59.8504845,4.43707236 59.4804845,4.07999913 58.8598392,4.07999913 C58.2212907,4.07999913 57.7975809,4.40195041 57.7975809,4.85853585 C57.7975809,5.29170665 58.2153229,5.64877988 59.0746779,5.818536 C60.4950007,6.093658 61.1812912,6.70243859 61.1812912,7.70926802 C61.1812912,8.73365843 60.3398394,9.50634146 58.9016134,9.50634146 C57.8870971,9.50634146 57.1470969,9.07317068 56.5980646,8.38243886 Z M62.6374195,9.36585366 L62.6374195,3.30146242 L63.7235487,3.30146242 L63.7235487,9.36585366 L62.6374195,9.36585366 Z M62.464355,1.60975482 C62.464355,1.21170598 62.7746777,0.907315692 63.1804841,0.907315692 C63.5862907,0.907315692 63.8966133,1.21170598 63.8966133,1.60975482 C63.8966133,2.00195001 63.5862907,2.3063403 63.1804841,2.3063403 C62.7746777,2.3063403 62.464355,2.00195001 62.464355,1.60975482 Z M68.5216135,8.55219499 C69.786775,8.55219499 70.7595171,7.55707288 70.7595171,6.33365804 C70.7595171,5.1102432 69.786775,4.11512108 68.5216135,4.11512108 C67.256452,4.11512108 66.2837099,5.1102432 66.2837099,6.33365804 C66.2837099,7.55707288 67.256452,8.55219499 68.5216135,8.55219499 Z M68.5216135,3.16097459 C70.4491945,3.16097459 71.8635496,4.58341385 71.8635496,6.33365804 C71.8635496,8.08390223 70.4491945,9.50634146 68.5216135,9.50634146 C66.5940326,9.50634146 65.1796775,8.08390223 65.1796775,6.33365804 C65.1796775,4.58341385 66.5940326,3.16097459 68.5216135,3.16097459 Z M74.262581,5.98829213 L74.262581,9.36585366 L73.1764517,9.36585366 L73.1764517,3.30146242 L74.262581,3.30146242 L74.262581,4.23219428 C74.6624197,3.6234137 75.3964521,3.16097459 76.2677425,3.16097459 C77.7895171,3.16097459 78.7562914,4.11512108 78.7562914,5.63707256 L78.7562914,9.36585366 L77.6701621,9.36585366 L77.6701621,5.69560916 C77.6701621,4.72975534 77.0733879,4.11512108 76.0648393,4.11512108 C75.121936,4.11512108 74.262581,4.92877976 74.262581,5.98829213 Z" id="path-1"></path>
                    </g>
                </g>
            </g>
        </g>
    </g>
</svg>